<?xml version="1.0" encoding="utf-8"?>
<!-- Generator: Adobe Illustrator 28.2.0, SVG Export Plug-In . SVG Version: 6.00 Build 0)  -->
<svg version="1.1" id="Layer_1" xmlns="http://www.w3.org/2000/svg" xmlns:xlink="http://www.w3.org/1999/xlink" x="0px" y="0px"
	 viewBox="0 0 1333.1 410.6" style="enable-background:new 0 0 1333.1 410.6;" xml:space="preserve">
<style type="text/css">
	.st0{fill:#C67F4D;}
	.st1{fill:#282828;}
</style>
<g>
	<g>
		<path class="st0" d="M189.4,166.2c0,0,20.5,2.3,29.8-14.7C219.2,151.5,222,170.8,189.4,166.2z"/>
		<path class="st0" d="M382.9,88.9c0,0,3.1,30.9,5.8,43.8c2.7,12.9,7.5,19.7,1.7,41.8c-5.8,22.1-7.1,21.4-5.1,25.8
			c0,0,9.3,6.3,6.6,13.7l3.7,3.4c0,0-2-11.9,12.9-19.3c0,0-8.1,5.8-7.5,22.1c0,0-13.2,7.5-22.1-9.2c0,0-4.8-8.8,0.7-23.4
			c5.4-14.6,9.5-28.2,7.5-36.7S378.7,122,382.9,88.9z"/>
		<path class="st0" d="M408.5,205.5c0,0-6.6,9.4,1.5,11.1c0,0-3.2-27.3,44.3-68.7c0,0-35.6,33.6-39.7,68.9c0,0-4.8,6.8-9.2,3.4
			C401.1,216.7,404.8,208.8,408.5,205.5z"/>
		<path class="st0" d="M449.3,213.3c0,0,58.7-93.3-13.6-125.9C435.7,87.4,484.9,121.4,449.3,213.3z"/>
		<path class="st0" d="M445.2,78.9c0,0,113.7,29.2,1.7,154.1C446.9,233,523.3,132.6,445.2,78.9z"/>
		<path class="st0" d="M404.5,47c0,0-38,33.9,18.7,41.1C423.1,88.1,340.3,91.2,404.5,47z"/>
		<path class="st0" d="M394.6,49.1l5.8-4.8c0,0-2-8.5-3.4-8.1C395.6,36.5,394.6,49.1,394.6,49.1z"/>
		<path class="st0" d="M414,26.7c0,0,14.6,27.2,8.5,40.4C422.5,67.1,398.4,72.5,414,26.7z"/>
		<path class="st0" d="M276,188.7c0,0-5.1-16,8.1-25.5C284.1,163.3,266.8,169.1,276,188.7z"/>
		<path class="st0" d="M276,166c0,0,2.4-6.4,17.7-8.5c15.3-2,20-5.1,21.7-12.9c0,0,8.1-5.8,4.4-18.7c0,0,3.4-4.1-0.7-9.5
			c-4.1-5.4-19-1-21.7-7.5c0,0,2.7,2.7,4.4,1c0,0-3.1-4.8-5.1-3.1c-2,1.7-0.7,7.8,11.5,8.5c0,0-5.8,1.4-3.4,5.4
			c2.4,4.1,10.5,6.4,6.8,15.6c-3.7,9.2-35,7.8-32.2,17c0,0,2,1.4,6.8-1.7c4.8-3.1,16.3-8.5,22.7-3.7c0,0,2.7,2-6.1,4.8
			S281.1,156.5,276,166z"/>
		<path class="st0" d="M274.6,154.5c0,0-6.1-8.8,7.5-12.9C282.1,141.6,263.8,143.3,274.6,154.5z"/>
		<path class="st0" d="M267.2,116.1c0,0,8.5,3.1,13.6-3.7c0,0-2.4-3.7-6.4-4.8c0,0,3.1,1.4,3.4,3.1
			C277.7,110.7,271.6,107.3,267.2,116.1z"/>
		<path class="st0" d="M239,110c0,0,5.4-1,3.7,7.5s-3.8,20.4,0.3,30.2c4.1,9.8-0.7,12.2-0.7,12.2s-5.8-10.2-13.9-13.2
			c-8.1-3.1-15.3-5.8-11.5-14.9c3.7-9.2,20.7-23.8,24.4-25.8s34.3-26.8,59.4,1c0,0-14.3-25.8-49.2-10.5c0,0-19,6.1-39.4,31.9
			c0,0-8.1,8.1,3.1,17.3c11.2,9.2,16.6,6.1,21.4,17.3c4.8,11.2,15.6,2.4,14.9-7.1c-0.7-9.5-4.4-8.5-5.8-17.3c-1.4-8.8-1-13.9-1-21
			C244.8,110.3,243.4,108.6,239,110z"/>
		<path class="st0" d="M563.5,156c0,0,20.7,79.6-48.9,112.9C514.6,268.8,596.7,252.2,563.5,156z"/>
		<path class="st0" d="M401.6,137.9c0,0-2.7-19.2,1.9-19.6S407.1,126,401.6,137.9z"/>
		<path class="st0" d="M83.1,213.3c0,0,67.3-79.3,178.3-27s177.8,56.3,234.8,46.7c0,0-81.1,41.8-206.6-16.5
			c-26.4-12.2-50-23.2-71.2-27.7C138.8,172.3,95.2,205,83.1,213.3z"/>
		<path class="st0" d="M282.1,221.1c0,0-103.9-63.2-194.2-4.9C87.9,216.2,171.4,183.9,282.1,221.1z"/>
		<g>
			<path class="st1" d="M671.7,136.6c-1.1-2.8-2.8-4.2-5-4.2c-0.7,0-1.2,0.1-1.5,0.2c-2.3,0.7-4.2,1.1-5.7,1.4s-3.2,0.4-5.3,0.4
				c-7.2,0-12.5-3.1-15.8-9.3s-4.9-15.5-4.9-28c0-12.5,1.6-21.8,4.9-27.9s8.3-9.2,15-9.2c3.6,0,7.1,0.6,10.7,1.7
				c2.2,0.8,4.1-0.5,5.6-3.8c1.5-3.3,2.3-7.1,2.3-11.4c0-3.8-1.7-6.2-5.2-7.2c-4.5-1.2-9.3-1.8-14.5-1.8c-15.5,0-27,4.9-34.4,14.7
				c-7.4,9.8-11.1,24.7-11.1,44.8c0,0.5,0,1,0,1.5c8.5,15.4,12.8,30.8,14.9,42.6c0.5,2.6,0.8,5.1,1.2,7.5c7,5.8,16.5,8.7,28.6,8.7
				c3.3,0,6.6-0.3,9.7-0.8c3.1-0.5,5.6-1.1,7.5-1.8c1.9-0.7,3.2-1.6,3.8-2.8c0.7-1.2,1-2.6,1-4.3
				C673.4,143.1,672.8,139.4,671.7,136.6z"/>
			<path class="st1" d="M753.2,38.5h-6.5c-6.5,0-9.7,1.8-9.7,5.4v76.1c0,4.5-1.3,8.1-3.9,11c-2.6,2.9-6,4.3-10.3,4.3
				c-4.3,0-7.8-1.4-10.4-4.3c-2.6-2.8-3.8-6.5-3.8-11.1V43.8c0-3.6-3.2-5.4-9.7-5.4h-6.7c-6.5,0-9.7,1.8-9.7,5.4v77.8
				c0,11.3,3.6,20,10.7,26.3c7.1,6.2,17,9.4,29.6,9.4c12.6,0,22.4-3.1,29.5-9.4c7.1-6.2,10.6-15,10.6-26.3V43.8
				C762.9,40.3,759.6,38.5,753.2,38.5z"/>
			<path class="st1" d="M851,149.5l-9.9-32.1c-1-3.6-2.5-6.9-4.5-10c-2-3.1-4.2-5.3-6.7-6.7V100c10.6-5.8,15.9-15.2,15.9-28.3
				c0-11.8-3.1-20.3-9.4-25.3c-6.2-5.1-14.5-7.6-24.7-7.6h-27.9c-2.3,0-4,0.5-5.1,1.6c-1.1,1.1-1.6,2.8-1.6,5.1v105.4
				c0,3.6,3.3,5.3,10,5.3h5.7c6.7,0,10-1.8,10-5.3v-37.8h4c2.8,0,4.8,0.5,6.1,1.5c1.3,1,2.4,2.7,3.4,5.2l8.9,31.8
				c0.8,3,4.1,4.5,10,4.5h5.9c6.9,0,10.4-1.5,10.4-4.5L851,149.5z M818.5,85c-1.7,2.5-3.8,3.7-6.3,3.7h-9.4V60.7h8.9
				c2.8,0,5,1.1,6.8,3.3c1.7,2.2,2.6,5.6,2.6,10.3C821.1,79,820.2,82.5,818.5,85z"/>
			<path class="st1" d="M933.4,149.5l-9.9-32.1c-1-3.6-2.5-6.9-4.5-10c-2-3.1-4.2-5.3-6.7-6.7V100c10.6-5.8,15.9-15.2,15.9-28.3
				c0-11.8-3.1-20.3-9.4-25.3c-6.2-5.1-14.5-7.6-24.7-7.6h-27.9c-2.3,0-4,0.5-5.1,1.6c-1.1,1.1-1.6,2.8-1.6,5.1v105.4
				c0,3.6,3.3,5.3,10,5.3h5.7c6.7,0,10-1.8,10-5.3v-37.8h4c2.8,0,4.8,0.5,6.1,1.5c1.3,1,2.4,2.7,3.4,5.2l8.9,31.8
				c0.8,3,4.1,4.5,10,4.5h5.9c6.9,0,10.4-1.5,10.4-4.5L933.4,149.5z M900.9,85c-1.7,2.5-3.8,3.7-6.3,3.7h-9.4V60.7h8.9
				c2.8,0,5,1.1,6.8,3.3c1.7,2.2,2.6,5.6,2.6,10.3C903.5,79,902.6,82.5,900.9,85z"/>
			<path class="st1" d="M1000.5,38.5h-7c-2.7,0-4.8,0.2-6.4,0.7c-1.6,0.4-2.5,1.3-2.8,2.5l-12.9,41.1l-13-41.1
				c-0.7-2.1-3.7-3.2-9.2-3.2h-8.5c-3.2,0-5.7,0.3-7.4,0.9c-1.7,0.6-2.6,1.4-2.6,2.4c0,0.8,0.5,2.2,1.5,4.2l25.7,59.4v45.5
				c0,3.6,3.3,5.3,9.9,5.3h6.5c3.3,0,5.8-0.4,7.4-1.3c1.6-0.9,2.4-2.2,2.5-4v-45l25.8-59.9c0.8-2.1,1.2-3.5,1.2-4.2
				C1011,39.6,1007.5,38.5,1000.5,38.5z"/>
		</g>
		<g>
			<path class="st1" d="M683,180.8c-7.4-9.7-18.2-14.5-32.5-14.5c-15.8,0-27.3,5.8-34.5,17.5c1.8,18.8,0,37.9-5.3,56.6
				c-0.7,2.5-1.4,4.9-2.2,7.2c4.7,25.4,18.7,38.1,42,38.1c14.2,0,25.1-4.8,32.5-14.5c7.4-9.7,11.1-24.8,11.1-45.2
				S690.4,190.5,683,180.8z M665.9,249c-1.2,5.5-3.1,9.4-5.5,11.6c-2.4,2.2-5.7,3.3-9.7,3.3c-4,0-7.3-1.1-9.8-3.3
				c-2.5-2.2-4.4-6.1-5.7-11.7c-1.3-5.6-1.9-13.2-1.9-22.9c0-9.7,0.6-17.3,1.9-22.8c1.3-5.5,3.2-9.4,5.7-11.6
				c2.5-2.2,5.8-3.3,9.8-3.3c4,0,7.2,1.1,9.7,3.3c2.4,2.2,4.3,6.1,5.5,11.6c1.2,5.5,1.8,13.1,1.8,22.8
				C667.7,235.8,667.1,243.4,665.9,249z"/>
			<path class="st1" d="M706.6,279.4V172.6c0-3.6,3.2-5.3,9.7-5.3h4.3c2.2,0,4,0.3,5.3,0.9c1.3,0.6,2.4,1.9,3.3,3.8l30,54.4
				c1.6,2.9,3.4,7.2,5.7,13l0.7-0.3c-0.9-5.8-1.3-10.2-1.3-13.2v-53.2c0-3.6,3.2-5.3,9.7-5.3h4c6.5,0,9.7,1.8,9.7,5.3v106.8
				c0,3.6-3.2,5.3-9.7,5.3h-3.2c-2.2,0-4.1-0.3-5.5-0.9c-1.4-0.6-2.6-1.9-3.5-3.8L734,223.3c-1-1.7-2.5-5.2-4.5-10.7l-0.8,0.5
				c0.9,5.1,1.3,8.9,1.3,11.3v54.9c0,3.6-3.2,5.3-9.7,5.3h-4C709.9,284.8,706.6,283,706.6,279.4z"/>
			<path class="st1" d="M814.6,281.1c0-0.9,0.2-1.9,0.5-3l25.7-106.1c0.8-3.1,4.2-4.7,10.2-4.7h10.8c6.1,0,9.6,1.6,10.3,4.7
				l25.7,106.1c0.2,1.6,0.3,2.6,0.3,3c0,2.4-2.4,3.7-7.2,3.7h-8.8c-5.3,0-8.3-1.2-8.8-3.5l-4.3-20.4h-25.4l-4.5,20.4
				c-0.4,2.3-3.1,3.5-7.8,3.5h-8.7C817.3,284.8,814.6,283.5,814.6,281.1z M866.2,240.5l-7.5-35.4c-0.8-4-1.4-8.2-2-12.7h-0.8
				c-0.6,4.5-1.2,8.7-2,12.7l-7.3,35.4H866.2z"/>
			<path class="st1" d="M934.6,283.3c-5.3-1.6-9.2-3.8-11.7-6.6c-1.4-2-2.2-3.9-2.2-5.8c0-3.1,0.8-6.3,2.5-9.5
				c1.7-3.2,3.5-4.8,5.5-4.8c0.9,0,2.3,0.6,4.3,1.7c1.9,1.1,3.4,1.9,4.3,2.3c4.3,2.2,8.2,3.3,11.5,3.3c3.4,0,6.5-0.8,9-2.5
				c2.6-1.7,3.8-4.5,3.8-8.5c0-3-0.7-5.6-2-7.7c-1.3-2.1-3-3.8-4.9-5.2c-1.9-1.3-4.8-3-8.4-5c-8.5-4.8-14.6-9.8-18.4-15.2
				c-3.8-5.3-5.7-12.5-5.7-21.5c0-10,3.2-17.9,9.6-23.5c6.4-5.7,14.9-8.5,25.4-8.5c3.8,0,7.8,0.6,12,1.8c4.2,1.2,7.5,2.6,9.8,4.3
				c2,1.4,3,3.4,3,5.8c0,2.9-0.6,6-1.9,9.2c-1.3,3.2-2.9,4.8-4.8,4.8c-0.9,0-2.5-0.4-4.8-1.3c-4.3-1.7-8-2.5-10.8-2.5
				c-4.5,0-7.5,0.9-9.2,2.8c-1.7,1.9-2.5,4.1-2.5,6.5c0,4.1,1.1,7.3,3.3,9.4s5.6,4.5,10.3,7.1l3.8,2.2c7.7,4.5,13.2,9.2,16.6,14.4
				c3.4,5.1,5.1,11.8,5.1,20.2c0,6.2-1.3,12-4,17.3c-2.7,5.3-6.7,9.5-12.2,12.8c-5.5,3.2-12.2,4.8-20.2,4.8
				C945.3,285.8,939.9,284.9,934.6,283.3z"/>
			<path class="st1" d="M1011.5,279.4v-89.9H993c-1.7,0-2.9-0.7-3.7-2c-0.8-1.3-1.2-3.4-1.2-6.3v-5.2c0-2.9,0.4-5,1.2-6.3
				c0.8-1.3,2-2,3.7-2h63.4c1.8,0,3.1,0.7,3.8,2c0.8,1.3,1.2,3.4,1.2,6.3v5.2c0,2.9-0.4,5-1.2,6.3c-0.8,1.3-2.1,2-3.8,2h-18.7v89.9
				c0,3.6-3.2,5.3-9.7,5.3h-6.8C1014.7,284.8,1011.5,283,1011.5,279.4z"/>
			<path class="st1" d="M1068.8,279.4V172.6c0-3.7,3.2-5.5,9.7-5.5h7c6.3,0,9.5,1.8,9.5,5.5v106.8c0,3.7-3.2,5.5-9.5,5.5h-7
				C1072,284.9,1068.8,283.1,1068.8,279.4z"/>
			<path class="st1" d="M1188.4,282.3c0,1.7-2.9,2.5-8.7,2.5h-11c-2.6,0-4.6-0.2-6-0.7c-1.4-0.4-2.4-1.3-3-2.5l-22.7-52.4l-0.5,0.2
				v50.1c0,3.6-3.3,5.3-9.8,5.3h-6.7c-6.5,0-9.7-1.8-9.7-5.3V172.6c0-3.6,3.2-5.3,9.7-5.3h6.7c6.6,0,9.8,1.8,9.8,5.3v49.7l0.7,0.2
				l22.5-52.1c0.6-1.2,1.5-2.1,2.8-2.5c1.3-0.4,3.2-0.7,5.7-0.7h9.2c6.1,0,9.2,0.8,9.2,2.5c0,0.8-0.3,1.9-1,3.5l-25.9,51.6
				l27.7,53.9C1188.1,280,1188.4,281.1,1188.4,282.3z"/>
			<path class="st1" d="M1189.5,203.7c-1.6-0.6-2.4-1.5-2.4-2.8c0-1.3,0.4-2.9,1.2-4.8c1.9-4.8,3.4-9.3,4.5-13.4
				c1.1-4.2,1.7-9.9,1.7-17.3c0-4.9,3.3-7.3,10-7.3h3.2c3.3,0,5.8,0.7,7.5,2c1.7,1.3,2.5,3.1,2.5,5.3c0,5.9-1.4,11.9-4.1,17.9
				c-2.7,6.1-6,11.1-9.7,15.2c-3.7,4.1-6.8,6.1-9.3,6.1C1192.8,204.7,1191.1,204.3,1189.5,203.7z"/>
		</g>
		<g>
			<g>
				<path class="st1" d="M625.9,332.7c0,0.1,0,0.2-0.1,0.3c-0.1,0.1-0.2,0.2-0.4,0.2c-0.2,0.1-0.4,0.1-0.6,0.1c-0.3,0-0.6,0.1-1,0.1
					c-0.4,0-0.7,0-1-0.1c-0.3,0-0.5-0.1-0.7-0.1c-0.2-0.1-0.3-0.1-0.3-0.2c-0.1-0.1-0.1-0.2-0.1-0.3V305h0l-11.2,27.8
					c0,0.1-0.1,0.2-0.2,0.3c-0.1,0.1-0.2,0.2-0.4,0.2c-0.2,0.1-0.4,0.1-0.6,0.1c-0.2,0-0.5,0-0.8,0c-0.3,0-0.6,0-0.9,0
					c-0.2,0-0.5-0.1-0.6-0.1c-0.2-0.1-0.3-0.1-0.4-0.2c-0.1-0.1-0.2-0.2-0.2-0.3L595.6,305h0v27.7c0,0.1,0,0.2-0.1,0.3
					c-0.1,0.1-0.2,0.2-0.4,0.2c-0.2,0.1-0.4,0.1-0.7,0.1c-0.3,0-0.6,0.1-1,0.1c-0.4,0-0.7,0-1-0.1c-0.3,0-0.5-0.1-0.6-0.1
					c-0.2-0.1-0.3-0.1-0.3-0.2c-0.1-0.1-0.1-0.2-0.1-0.3v-29.2c0-0.7,0.2-1.2,0.5-1.5c0.4-0.3,0.8-0.4,1.2-0.4h2.6
					c0.5,0,1,0,1.4,0.1c0.4,0.1,0.7,0.3,1,0.5c0.3,0.2,0.5,0.5,0.7,0.8c0.2,0.3,0.4,0.7,0.5,1.2l9.1,23h0.1l9.5-22.9
					c0.2-0.5,0.4-0.9,0.6-1.3c0.2-0.3,0.5-0.6,0.7-0.8c0.3-0.2,0.5-0.4,0.9-0.4c0.3-0.1,0.7-0.1,1.1-0.1h2.7c0.2,0,0.5,0,0.7,0.1
					c0.2,0.1,0.4,0.2,0.6,0.3c0.2,0.2,0.3,0.4,0.4,0.6c0.1,0.2,0.1,0.5,0.1,0.9V332.7z"/>
				<path class="st1" d="M649.4,332.7c0,0.1,0,0.2-0.1,0.3c-0.1,0.1-0.2,0.2-0.3,0.2c-0.2,0.1-0.4,0.1-0.7,0.1c-0.3,0-0.6,0.1-1,0.1
					c-0.4,0-0.7,0-1-0.1c-0.3,0-0.5-0.1-0.7-0.1c-0.2-0.1-0.3-0.1-0.3-0.2c-0.1-0.1-0.1-0.2-0.1-0.3v-30.5c0-0.1,0-0.2,0.1-0.3
					c0.1-0.1,0.2-0.2,0.4-0.2c0.2-0.1,0.4-0.1,0.7-0.1c0.3,0,0.6-0.1,1-0.1c0.4,0,0.7,0,1,0.1c0.3,0,0.5,0.1,0.7,0.1
					c0.2,0.1,0.3,0.1,0.3,0.2c0.1,0.1,0.1,0.2,0.1,0.3V332.7z"/>
				<path class="st1" d="M692.6,331.6c0,0.3-0.1,0.6-0.2,0.8c-0.1,0.2-0.3,0.4-0.4,0.6c-0.2,0.1-0.4,0.3-0.6,0.3
					c-0.2,0.1-0.4,0.1-0.7,0.1h-1.4c-0.4,0-0.8,0-1.2-0.1c-0.3-0.1-0.6-0.3-0.9-0.5c-0.3-0.2-0.6-0.6-0.9-1
					c-0.3-0.4-0.6-0.9-0.9-1.6l-9.7-18.1c-0.5-0.9-1-1.9-1.5-2.9c-0.5-1-1-2-1.4-3h0c0,1.2,0.1,2.4,0.1,3.6c0,1.2,0,2.4,0,3.7v19.2
					c0,0.1,0,0.2-0.1,0.3c-0.1,0.1-0.2,0.2-0.4,0.2c-0.2,0.1-0.4,0.1-0.6,0.1c-0.3,0-0.6,0.1-1,0.1c-0.4,0-0.8,0-1-0.1
					c-0.3,0-0.5-0.1-0.6-0.1c-0.2-0.1-0.3-0.1-0.3-0.2c-0.1-0.1-0.1-0.2-0.1-0.3v-29.3c0-0.7,0.2-1.1,0.6-1.4
					c0.4-0.3,0.8-0.4,1.2-0.4h2.1c0.5,0,0.9,0,1.2,0.1c0.3,0.1,0.6,0.2,0.9,0.4c0.3,0.2,0.5,0.5,0.8,0.8c0.2,0.3,0.5,0.8,0.8,1.3
					l7.5,14c0.5,0.9,0.9,1.7,1.3,2.5c0.4,0.8,0.8,1.6,1.2,2.4c0.4,0.8,0.8,1.6,1.2,2.3c0.4,0.8,0.8,1.5,1.2,2.3h0
					c0-1.3-0.1-2.6-0.1-4c0-1.4,0-2.7,0-4v-17.2c0-0.1,0-0.2,0.1-0.3c0.1-0.1,0.2-0.2,0.3-0.3c0.2-0.1,0.4-0.1,0.6-0.2
					c0.3,0,0.6,0,1,0c0.4,0,0.7,0,1,0c0.3,0,0.5,0.1,0.6,0.2c0.2,0.1,0.3,0.2,0.3,0.3c0.1,0.1,0.1,0.2,0.1,0.3V331.6z"/>
				<path class="st1" d="M736.3,317c0,2.8-0.4,5.2-1.1,7.2c-0.7,2.1-1.7,3.8-3.1,5.1c-1.4,1.4-3,2.4-5,3c-2,0.7-4.3,1-7,1h-6.7
					c-0.4,0-0.7-0.1-1.1-0.4c-0.3-0.3-0.5-0.7-0.5-1.3v-28.3c0-0.6,0.2-1.1,0.5-1.3c0.3-0.3,0.7-0.4,1.1-0.4h7.2
					c2.8,0,5.1,0.4,7,1.1c1.9,0.7,3.5,1.7,4.8,3.1c1.3,1.3,2.3,3,2.9,4.9C735.9,312.4,736.3,314.6,736.3,317z M731.8,317.2
					c0-1.7-0.2-3.3-0.6-4.8c-0.4-1.5-1.1-2.8-2-3.8c-0.9-1.1-2.1-1.9-3.5-2.5c-1.4-0.6-3.2-0.9-5.4-0.9H716v24.7h4.3
					c2,0,3.7-0.3,5.1-0.8c1.4-0.5,2.6-1.3,3.5-2.3c0.9-1,1.6-2.4,2.1-3.9C731.6,321.2,731.8,319.3,731.8,317.2z"/>
				<path class="st1" d="M770.2,303.4c0,0.3,0,0.6,0,0.8c0,0.2-0.1,0.4-0.2,0.6c-0.1,0.1-0.2,0.2-0.3,0.3c-0.1,0.1-0.2,0.1-0.3,0.1
					h-11.6V316h11c0.1,0,0.2,0,0.3,0.1c0.1,0.1,0.2,0.2,0.3,0.3c0.1,0.1,0.1,0.3,0.2,0.5c0,0.2,0,0.5,0,0.8c0,0.3,0,0.6,0,0.8
					c0,0.2-0.1,0.4-0.2,0.5c-0.1,0.1-0.2,0.2-0.3,0.3c-0.1,0.1-0.2,0.1-0.3,0.1h-11v13.2c0,0.1,0,0.2-0.1,0.3
					c-0.1,0.1-0.2,0.2-0.3,0.2c-0.2,0.1-0.4,0.1-0.6,0.1c-0.3,0-0.6,0.1-1,0.1c-0.4,0-0.7,0-1-0.1c-0.3,0-0.5-0.1-0.7-0.1
					c-0.2-0.1-0.3-0.1-0.3-0.2c-0.1-0.1-0.1-0.2-0.1-0.3v-29.4c0-0.6,0.2-1.1,0.5-1.3c0.3-0.3,0.7-0.4,1.1-0.4h14.3
					c0.1,0,0.2,0,0.3,0.1c0.1,0.1,0.2,0.2,0.3,0.3c0.1,0.1,0.1,0.3,0.2,0.6C770.2,302.8,770.2,303.1,770.2,303.4z"/>
				<path class="st1" d="M811.3,321.6c0,1.9-0.3,3.7-0.8,5.2c-0.6,1.5-1.4,2.8-2.4,3.8c-1,1-2.3,1.8-3.8,2.4
					c-1.5,0.5-3.2,0.8-5.1,0.8c-1.8,0-3.3-0.3-4.8-0.8c-1.4-0.5-2.7-1.3-3.7-2.2c-1-1-1.8-2.2-2.4-3.7c-0.6-1.5-0.8-3.2-0.8-5.2
					v-19.7c0-0.1,0-0.2,0.1-0.3c0.1-0.1,0.2-0.2,0.3-0.2c0.2-0.1,0.4-0.1,0.6-0.1c0.3,0,0.6-0.1,1-0.1c0.4,0,0.7,0,1,0.1
					c0.3,0,0.5,0.1,0.7,0.1c0.2,0.1,0.3,0.1,0.3,0.2c0.1,0.1,0.1,0.2,0.1,0.3v19.2c0,1.5,0.2,2.8,0.5,3.9c0.4,1.1,0.9,2,1.6,2.7
					c0.7,0.7,1.5,1.3,2.5,1.6c1,0.4,2,0.6,3.2,0.6c1.2,0,2.3-0.2,3.3-0.5c1-0.4,1.8-0.9,2.4-1.6c0.7-0.7,1.2-1.6,1.5-2.7
					c0.4-1.1,0.5-2.3,0.5-3.7v-19.4c0-0.1,0-0.2,0.1-0.3c0.1-0.1,0.2-0.2,0.3-0.2c0.2-0.1,0.4-0.1,0.7-0.1c0.3,0,0.6-0.1,1-0.1
					c0.4,0,0.7,0,1,0.1c0.3,0,0.5,0.1,0.6,0.1c0.2,0.1,0.3,0.1,0.3,0.2c0.1,0.1,0.1,0.2,0.1,0.3V321.6z"/>
				<path class="st1" d="M846.9,331.5c0,0.3,0,0.6,0,0.8c0,0.2-0.1,0.4-0.2,0.6c-0.1,0.2-0.2,0.3-0.3,0.3c-0.1,0.1-0.2,0.1-0.4,0.1
					H832c-0.4,0-0.7-0.1-1.1-0.4c-0.3-0.3-0.5-0.7-0.5-1.3v-29.4c0-0.1,0-0.2,0.1-0.3c0.1-0.1,0.2-0.2,0.3-0.2
					c0.2-0.1,0.4-0.1,0.7-0.1c0.3,0,0.6-0.1,1-0.1c0.4,0,0.7,0,1,0.1c0.3,0,0.5,0.1,0.7,0.1c0.2,0.1,0.3,0.1,0.3,0.2
					c0.1,0.1,0.1,0.2,0.1,0.3v27.5h11.4c0.1,0,0.3,0,0.4,0.1c0.1,0.1,0.2,0.2,0.3,0.3c0.1,0.1,0.1,0.3,0.2,0.6
					C846.9,330.9,846.9,331.2,846.9,331.5z"/>
				<path class="st1" d="M908.4,305.9c0,0.3,0,0.6,0,0.8c0,0.2-0.1,0.4-0.1,0.6c-0.1,0.2-0.1,0.3-0.2,0.3c-0.1,0.1-0.2,0.1-0.3,0.1
					c-0.2,0-0.5-0.2-1-0.5c-0.5-0.3-1.1-0.7-1.8-1c-0.8-0.4-1.7-0.7-2.8-1c-1.1-0.3-2.3-0.5-3.8-0.5c-1.8,0-3.3,0.3-4.7,1
					c-1.4,0.6-2.6,1.5-3.5,2.7c-1,1.1-1.7,2.5-2.2,4c-0.5,1.6-0.8,3.2-0.8,5.1c0,2,0.3,3.8,0.8,5.4c0.6,1.6,1.3,2.9,2.3,4
					c1,1.1,2.2,1.9,3.6,2.5c1.4,0.6,2.9,0.8,4.6,0.8c1,0,2-0.1,3-0.4c1-0.2,1.9-0.6,2.8-1.1v-9.3h-7.4c-0.3,0-0.5-0.1-0.6-0.4
					c-0.1-0.3-0.2-0.7-0.2-1.3c0-0.3,0-0.6,0-0.8c0-0.2,0.1-0.4,0.2-0.5c0.1-0.1,0.2-0.2,0.3-0.3c0.1-0.1,0.2-0.1,0.4-0.1h10.1
					c0.2,0,0.4,0,0.5,0.1c0.2,0.1,0.3,0.2,0.5,0.3c0.1,0.1,0.3,0.3,0.3,0.5c0.1,0.2,0.1,0.5,0.1,0.8v12.1c0,0.4-0.1,0.8-0.2,1.1
					c-0.1,0.3-0.5,0.6-0.9,0.8c-0.5,0.2-1.1,0.5-1.8,0.8c-0.8,0.3-1.5,0.5-2.3,0.7c-0.8,0.2-1.6,0.3-2.4,0.4
					c-0.8,0.1-1.6,0.1-2.4,0.1c-2.5,0-4.7-0.4-6.6-1.1c-1.9-0.8-3.6-1.8-4.9-3.3c-1.3-1.4-2.4-3.1-3.1-5.1c-0.7-2-1.1-4.2-1.1-6.6
					c0-2.5,0.4-4.8,1.1-6.9c0.8-2,1.8-3.8,3.2-5.2c1.4-1.4,3-2.6,5-3.4c1.9-0.8,4.1-1.2,6.4-1.2c1.2,0,2.3,0.1,3.4,0.3
					c1.1,0.2,2,0.5,2.8,0.7c0.8,0.3,1.5,0.6,2.1,0.9c0.6,0.3,1,0.6,1.2,0.8c0.2,0.2,0.4,0.5,0.4,0.7
					C908.4,305,908.4,305.4,908.4,305.9z"/>
				<path class="st1" d="M948.2,332.7c0,0.1,0,0.2-0.1,0.3c0,0.1-0.2,0.2-0.3,0.2c-0.2,0.1-0.4,0.1-0.7,0.1c-0.3,0-0.7,0-1.2,0
					c-0.4,0-0.8,0-1,0c-0.3,0-0.5-0.1-0.7-0.2c-0.2-0.1-0.3-0.2-0.4-0.3c-0.1-0.1-0.2-0.3-0.2-0.5l-2.9-7.5
					c-0.3-0.9-0.7-1.6-1.1-2.3s-0.8-1.3-1.3-1.8c-0.5-0.5-1.1-0.9-1.8-1.2c-0.7-0.3-1.5-0.4-2.5-0.4h-2.8v13.5c0,0.1,0,0.2-0.1,0.3
					c-0.1,0.1-0.2,0.2-0.3,0.2c-0.2,0.1-0.4,0.1-0.6,0.1c-0.3,0-0.6,0.1-1,0.1c-0.4,0-0.7,0-1-0.1c-0.3,0-0.5-0.1-0.7-0.1
					c-0.2-0.1-0.3-0.1-0.3-0.2c-0.1-0.1-0.1-0.2-0.1-0.3v-29.4c0-0.6,0.2-1.1,0.5-1.3c0.3-0.3,0.7-0.4,1.1-0.4h6.8
					c0.8,0,1.5,0,2,0.1c0.5,0,1,0.1,1.4,0.1c1.2,0.2,2.3,0.5,3.3,1c0.9,0.5,1.7,1,2.4,1.7c0.6,0.7,1.1,1.5,1.4,2.4
					c0.3,0.9,0.5,1.9,0.5,3c0,1.1-0.1,2-0.4,2.9c-0.3,0.8-0.7,1.6-1.2,2.2c-0.5,0.6-1.2,1.2-1.9,1.7c-0.8,0.5-1.6,0.9-2.5,1.2
					c0.5,0.2,1,0.5,1.4,0.9c0.4,0.4,0.8,0.8,1.2,1.3c0.4,0.5,0.7,1.1,1,1.7c0.3,0.6,0.7,1.4,1,2.2l2.8,7c0.2,0.6,0.4,1,0.4,1.2
					C948.2,332.4,948.2,332.6,948.2,332.7z M941.9,310.4c0-1.2-0.3-2.3-0.8-3.2c-0.6-0.9-1.5-1.5-2.8-1.9c-0.4-0.1-0.9-0.2-1.4-0.2
					c-0.5,0-1.2-0.1-2-0.1h-3.6v10.7h4.1c1.1,0,2.1-0.1,2.9-0.4c0.8-0.3,1.5-0.6,2-1.1c0.5-0.5,0.9-1.1,1.2-1.7
					C941.7,311.9,941.9,311.1,941.9,310.4z"/>
				<path class="st1" d="M991.2,317.1c0,2.6-0.3,4.9-0.9,7c-0.6,2.1-1.5,3.8-2.7,5.3c-1.2,1.4-2.7,2.6-4.5,3.3
					c-1.8,0.8-3.9,1.2-6.4,1.2c-2.4,0-4.5-0.4-6.2-1.1c-1.7-0.7-3.2-1.7-4.3-3.1c-1.1-1.4-2-3-2.5-5.1c-0.6-2-0.8-4.3-0.8-7
					c0-2.5,0.3-4.8,0.9-6.8c0.6-2,1.5-3.8,2.7-5.2c1.2-1.4,2.7-2.5,4.5-3.3c1.8-0.8,3.9-1.2,6.4-1.2c2.3,0,4.4,0.4,6.1,1.1
					c1.7,0.7,3.2,1.7,4.3,3.1c1.2,1.4,2,3,2.6,5C991,312.2,991.2,314.5,991.2,317.1z M986.8,317.4c0-1.8-0.2-3.5-0.5-5
					c-0.3-1.5-0.9-2.9-1.6-4c-0.7-1.1-1.7-2-3-2.7c-1.2-0.6-2.8-1-4.6-1c-1.8,0-3.4,0.3-4.6,1c-1.2,0.7-2.3,1.6-3,2.8
					c-0.8,1.1-1.3,2.5-1.7,4c-0.3,1.5-0.5,3.1-0.5,4.8c0,1.9,0.2,3.6,0.5,5.2s0.8,2.9,1.6,4.1c0.7,1.1,1.7,2,3,2.7
					c1.2,0.6,2.8,0.9,4.6,0.9c1.8,0,3.4-0.3,4.7-1c1.3-0.7,2.3-1.6,3-2.8c0.8-1.2,1.3-2.5,1.6-4.1
					C986.6,320.7,986.8,319.1,986.8,317.4z"/>
				<path class="st1" d="M1035.3,317.1c0,2.6-0.3,4.9-0.9,7c-0.6,2.1-1.5,3.8-2.7,5.3c-1.2,1.4-2.7,2.6-4.5,3.3
					c-1.8,0.8-3.9,1.2-6.4,1.2c-2.4,0-4.5-0.4-6.2-1.1c-1.7-0.7-3.2-1.7-4.3-3.1c-1.1-1.4-2-3-2.5-5.1c-0.6-2-0.8-4.3-0.8-7
					c0-2.5,0.3-4.8,0.9-6.8c0.6-2,1.5-3.8,2.7-5.2c1.2-1.4,2.7-2.5,4.5-3.3c1.8-0.8,3.9-1.2,6.4-1.2c2.3,0,4.4,0.4,6.1,1.1
					c1.7,0.7,3.2,1.7,4.3,3.1c1.2,1.4,2,3,2.6,5C1035,312.2,1035.3,314.5,1035.3,317.1z M1030.9,317.4c0-1.8-0.2-3.5-0.5-5
					c-0.3-1.5-0.9-2.9-1.6-4c-0.7-1.1-1.7-2-3-2.7c-1.2-0.6-2.8-1-4.6-1c-1.8,0-3.4,0.3-4.6,1c-1.2,0.7-2.3,1.6-3,2.8
					c-0.8,1.1-1.3,2.5-1.7,4c-0.3,1.5-0.5,3.1-0.5,4.8c0,1.9,0.2,3.6,0.5,5.2c0.3,1.6,0.8,2.9,1.6,4.1c0.7,1.1,1.7,2,3,2.7
					c1.2,0.6,2.8,0.9,4.6,0.9c1.8,0,3.4-0.3,4.7-1c1.3-0.7,2.3-1.6,3-2.8c0.8-1.2,1.3-2.5,1.6-4.1
					C1030.7,320.7,1030.9,319.1,1030.9,317.4z"/>
				<path class="st1" d="M1087.3,332.7c0,0.1,0,0.2-0.1,0.3c-0.1,0.1-0.2,0.2-0.4,0.2c-0.2,0.1-0.4,0.1-0.6,0.1
					c-0.3,0-0.6,0.1-1,0.1c-0.4,0-0.7,0-1-0.1c-0.3,0-0.5-0.1-0.7-0.1c-0.2-0.1-0.3-0.1-0.3-0.2c-0.1-0.1-0.1-0.2-0.1-0.3V305h0
					l-11.2,27.8c0,0.1-0.1,0.2-0.2,0.3c-0.1,0.1-0.2,0.2-0.4,0.2c-0.2,0.1-0.4,0.1-0.6,0.1c-0.2,0-0.5,0-0.8,0c-0.3,0-0.6,0-0.9,0
					c-0.2,0-0.5-0.1-0.6-0.1c-0.2-0.1-0.3-0.1-0.4-0.2c-0.1-0.1-0.2-0.2-0.2-0.3L1057,305h0v27.7c0,0.1,0,0.2-0.1,0.3
					c-0.1,0.1-0.2,0.2-0.4,0.2c-0.2,0.1-0.4,0.1-0.7,0.1c-0.3,0-0.6,0.1-1,0.1c-0.4,0-0.7,0-1-0.1c-0.3,0-0.5-0.1-0.6-0.1
					c-0.2-0.1-0.3-0.1-0.3-0.2c-0.1-0.1-0.1-0.2-0.1-0.3v-29.2c0-0.7,0.2-1.2,0.5-1.5c0.4-0.3,0.8-0.4,1.2-0.4h2.6
					c0.5,0,1,0,1.4,0.1c0.4,0.1,0.7,0.3,1,0.5c0.3,0.2,0.5,0.5,0.7,0.8c0.2,0.3,0.4,0.7,0.5,1.2l9.1,23h0.1l9.5-22.9
					c0.2-0.5,0.4-0.9,0.6-1.3c0.2-0.3,0.5-0.6,0.7-0.8c0.3-0.2,0.5-0.4,0.9-0.4c0.3-0.1,0.7-0.1,1.1-0.1h2.7c0.2,0,0.5,0,0.7,0.1
					c0.2,0.1,0.4,0.2,0.6,0.3c0.2,0.2,0.3,0.4,0.4,0.6c0.1,0.2,0.1,0.5,0.1,0.9V332.7z"/>
				<path class="st1" d="M1110.8,332.7c0,0.1,0,0.2-0.1,0.3c-0.1,0.1-0.2,0.2-0.3,0.2c-0.2,0.1-0.4,0.1-0.7,0.1
					c-0.3,0-0.6,0.1-1,0.1c-0.4,0-0.7,0-1-0.1c-0.3,0-0.5-0.1-0.7-0.1c-0.2-0.1-0.3-0.1-0.3-0.2c-0.1-0.1-0.1-0.2-0.1-0.3v-30.5
					c0-0.1,0-0.2,0.1-0.3c0.1-0.1,0.2-0.2,0.4-0.2c0.2-0.1,0.4-0.1,0.7-0.1c0.3,0,0.6-0.1,1-0.1c0.4,0,0.7,0,1,0.1
					c0.3,0,0.5,0.1,0.7,0.1c0.2,0.1,0.3,0.1,0.3,0.2c0.1,0.1,0.1,0.2,0.1,0.3V332.7z"/>
				<path class="st1" d="M1154,331.6c0,0.3-0.1,0.6-0.2,0.8c-0.1,0.2-0.3,0.4-0.4,0.6c-0.2,0.1-0.4,0.3-0.6,0.3
					c-0.2,0.1-0.4,0.1-0.7,0.1h-1.4c-0.4,0-0.8,0-1.2-0.1c-0.3-0.1-0.6-0.3-0.9-0.5c-0.3-0.2-0.6-0.6-0.9-1
					c-0.3-0.4-0.6-0.9-0.9-1.6l-9.7-18.1c-0.5-0.9-1-1.9-1.5-2.9c-0.5-1-1-2-1.4-3h0c0,1.2,0.1,2.4,0.1,3.6c0,1.2,0,2.4,0,3.7v19.2
					c0,0.1,0,0.2-0.1,0.3c-0.1,0.1-0.2,0.2-0.4,0.2c-0.2,0.1-0.4,0.1-0.6,0.1c-0.3,0-0.6,0.1-1,0.1c-0.4,0-0.8,0-1-0.1
					c-0.3,0-0.5-0.1-0.6-0.1c-0.2-0.1-0.3-0.1-0.3-0.2c-0.1-0.1-0.1-0.2-0.1-0.3v-29.3c0-0.7,0.2-1.1,0.6-1.4
					c0.4-0.3,0.8-0.4,1.2-0.4h2.1c0.5,0,0.9,0,1.2,0.1c0.3,0.1,0.6,0.2,0.9,0.4c0.3,0.2,0.5,0.5,0.8,0.8c0.2,0.3,0.5,0.8,0.8,1.3
					l7.5,14c0.5,0.9,0.9,1.7,1.3,2.5c0.4,0.8,0.8,1.6,1.2,2.4c0.4,0.8,0.8,1.6,1.2,2.3c0.4,0.8,0.8,1.5,1.2,2.3h0
					c0-1.3-0.1-2.6-0.1-4c0-1.4,0-2.7,0-4v-17.2c0-0.1,0-0.2,0.1-0.3c0.1-0.1,0.2-0.2,0.3-0.3c0.2-0.1,0.4-0.1,0.6-0.2
					c0.3,0,0.6,0,1,0c0.4,0,0.7,0,1,0c0.3,0,0.5,0.1,0.6,0.2c0.2,0.1,0.3,0.2,0.3,0.3c0.1,0.1,0.1,0.2,0.1,0.3V331.6z"/>
				<path class="st1" d="M1197.1,305.9c0,0.3,0,0.6,0,0.8c0,0.2-0.1,0.4-0.1,0.6c-0.1,0.2-0.1,0.3-0.2,0.3c-0.1,0.1-0.2,0.1-0.3,0.1
					c-0.2,0-0.5-0.2-1-0.5c-0.5-0.3-1.1-0.7-1.8-1c-0.8-0.4-1.7-0.7-2.8-1c-1.1-0.3-2.3-0.5-3.8-0.5c-1.8,0-3.3,0.3-4.7,1
					c-1.4,0.6-2.6,1.5-3.5,2.7c-1,1.1-1.7,2.5-2.2,4c-0.5,1.6-0.8,3.2-0.8,5.1c0,2,0.3,3.8,0.8,5.4c0.6,1.6,1.3,2.9,2.3,4
					c1,1.1,2.2,1.9,3.6,2.5c1.4,0.6,2.9,0.8,4.6,0.8c1,0,2-0.1,3-0.4c1-0.2,1.9-0.6,2.8-1.1v-9.3h-7.4c-0.3,0-0.5-0.1-0.6-0.4
					c-0.1-0.3-0.2-0.7-0.2-1.3c0-0.3,0-0.6,0-0.8c0-0.2,0.1-0.4,0.2-0.5c0.1-0.1,0.2-0.2,0.3-0.3c0.1-0.1,0.2-0.1,0.4-0.1h10.1
					c0.2,0,0.4,0,0.5,0.1c0.2,0.1,0.3,0.2,0.5,0.3c0.1,0.1,0.3,0.3,0.3,0.5c0.1,0.2,0.1,0.5,0.1,0.8v12.1c0,0.4-0.1,0.8-0.2,1.1
					c-0.1,0.3-0.5,0.6-0.9,0.8c-0.5,0.2-1.1,0.5-1.8,0.8c-0.8,0.3-1.5,0.5-2.3,0.7c-0.8,0.2-1.6,0.3-2.4,0.4
					c-0.8,0.1-1.6,0.1-2.4,0.1c-2.5,0-4.7-0.4-6.6-1.1c-1.9-0.8-3.6-1.8-4.9-3.3c-1.3-1.4-2.4-3.1-3.1-5.1c-0.7-2-1.1-4.2-1.1-6.6
					c0-2.5,0.4-4.8,1.1-6.9c0.8-2,1.8-3.8,3.2-5.2c1.4-1.4,3-2.6,5-3.4c1.9-0.8,4.1-1.2,6.4-1.2c1.2,0,2.3,0.1,3.4,0.3
					c1.1,0.2,2,0.5,2.8,0.7c0.8,0.3,1.5,0.6,2.1,0.9c0.6,0.3,1,0.6,1.2,0.8c0.2,0.2,0.4,0.5,0.4,0.7
					C1197.1,305,1197.1,305.4,1197.1,305.9z"/>
			</g>
		</g>
		<g>
			<g>
				<path class="st1" d="M585.6,353.7c0,0.3,0,0.6,0,0.8c0,0.2-0.1,0.4-0.2,0.6c-0.1,0.1-0.2,0.2-0.3,0.3c-0.1,0.1-0.2,0.1-0.4,0.1
					h-8.9v27.5c0,0.1,0,0.2-0.1,0.3c-0.1,0.1-0.2,0.2-0.3,0.2c-0.2,0.1-0.4,0.1-0.6,0.1c-0.3,0-0.6,0.1-1,0.1c-0.4,0-0.7,0-1-0.1
					c-0.3,0-0.5-0.1-0.7-0.1c-0.2-0.1-0.3-0.1-0.3-0.2c-0.1-0.1-0.1-0.2-0.1-0.3v-27.5h-8.9c-0.1,0-0.2,0-0.4-0.1
					c-0.1-0.1-0.2-0.2-0.3-0.3c-0.1-0.1-0.1-0.3-0.2-0.6c0-0.2-0.1-0.5-0.1-0.8c0-0.3,0-0.6,0.1-0.8c0-0.2,0.1-0.4,0.2-0.6
					c0.1-0.1,0.2-0.3,0.3-0.3c0.1-0.1,0.2-0.1,0.4-0.1h22c0.1,0,0.2,0,0.4,0.1c0.1,0.1,0.2,0.2,0.3,0.3c0.1,0.1,0.1,0.3,0.2,0.6
					C585.5,353.1,585.6,353.4,585.6,353.7z"/>
				<path class="st1" d="M623.8,382.9c0,0.1,0,0.2-0.1,0.3c-0.1,0.1-0.2,0.2-0.3,0.2c-0.2,0.1-0.4,0.1-0.6,0.1c-0.3,0-0.6,0.1-1,0.1
					c-0.4,0-0.8,0-1-0.1c-0.3,0-0.5-0.1-0.6-0.1c-0.2-0.1-0.3-0.1-0.3-0.2c-0.1-0.1-0.1-0.2-0.1-0.3v-14h-14.4v14
					c0,0.1,0,0.2-0.1,0.3c-0.1,0.1-0.2,0.2-0.3,0.2c-0.2,0.1-0.4,0.1-0.6,0.1c-0.3,0-0.6,0.1-1,0.1c-0.4,0-0.7,0-1-0.1
					c-0.3,0-0.5-0.1-0.7-0.1c-0.2-0.1-0.3-0.1-0.3-0.2c-0.1-0.1-0.1-0.2-0.1-0.3v-30.4c0-0.1,0-0.2,0.1-0.3c0.1-0.1,0.2-0.2,0.3-0.2
					c0.2-0.1,0.4-0.1,0.7-0.1c0.3,0,0.6-0.1,1-0.1c0.4,0,0.7,0,1,0.1c0.3,0,0.5,0.1,0.6,0.1c0.2,0.1,0.3,0.1,0.3,0.2
					c0.1,0.1,0.1,0.2,0.1,0.3v12.7h14.4v-12.7c0-0.1,0-0.2,0.1-0.3c0.1-0.1,0.2-0.2,0.3-0.2c0.2-0.1,0.4-0.1,0.6-0.1
					c0.3,0,0.6-0.1,1-0.1c0.4,0,0.7,0,1,0.1c0.3,0,0.5,0.1,0.6,0.1c0.2,0.1,0.3,0.1,0.3,0.2c0.1,0.1,0.1,0.2,0.1,0.3V382.9z"/>
				<path class="st1" d="M660.6,381.8c0,0.3,0,0.6,0,0.8c0,0.2-0.1,0.4-0.2,0.6c-0.1,0.1-0.2,0.3-0.3,0.3c-0.1,0.1-0.2,0.1-0.4,0.1
					h-15.2c-0.4,0-0.7-0.1-1.1-0.4c-0.3-0.3-0.5-0.7-0.5-1.3v-28.2c0-0.6,0.2-1.1,0.5-1.3c0.3-0.3,0.7-0.4,1.1-0.4h15
					c0.1,0,0.2,0,0.4,0.1c0.1,0.1,0.2,0.2,0.3,0.3c0.1,0.1,0.1,0.3,0.2,0.6c0,0.2,0.1,0.5,0.1,0.8c0,0.3,0,0.6-0.1,0.8
					c0,0.2-0.1,0.4-0.2,0.5c-0.1,0.1-0.2,0.2-0.3,0.3c-0.1,0.1-0.2,0.1-0.4,0.1h-12.4v9.9h10.6c0.1,0,0.2,0,0.4,0.1
					c0.1,0.1,0.2,0.2,0.3,0.3c0.1,0.1,0.1,0.3,0.2,0.5c0,0.2,0,0.5,0,0.8c0,0.3,0,0.5,0,0.8c0,0.2-0.1,0.4-0.2,0.5
					c-0.1,0.1-0.2,0.2-0.3,0.3c-0.1,0.1-0.2,0.1-0.4,0.1h-10.6V380h12.6c0.1,0,0.2,0,0.4,0.1c0.1,0.1,0.2,0.2,0.3,0.3
					c0.1,0.1,0.1,0.3,0.2,0.5C660.6,381.2,660.6,381.5,660.6,381.8z"/>
				<path class="st1" d="M699.4,382.9c0,0.1,0,0.2-0.1,0.3c0,0.1-0.2,0.2-0.3,0.2c-0.2,0.1-0.4,0.1-0.7,0.1c-0.3,0-0.7,0-1.2,0
					c-0.4,0-0.8,0-1,0c-0.3,0-0.5-0.1-0.6-0.2c-0.2-0.1-0.3-0.2-0.4-0.3c-0.1-0.1-0.2-0.3-0.2-0.5l-2.9-7.5
					c-0.3-0.8-0.7-1.6-1.1-2.3c-0.4-0.7-0.8-1.3-1.3-1.8c-0.5-0.5-1.1-0.9-1.8-1.2c-0.7-0.3-1.5-0.4-2.5-0.4h-2.8v13.5
					c0,0.1,0,0.2-0.1,0.3c-0.1,0.1-0.2,0.2-0.3,0.2c-0.2,0.1-0.4,0.1-0.6,0.1c-0.3,0-0.6,0.1-1,0.1c-0.4,0-0.7,0-1-0.1
					c-0.3,0-0.5-0.1-0.6-0.1c-0.2-0.1-0.3-0.1-0.3-0.2c-0.1-0.1-0.1-0.2-0.1-0.3v-29.3c0-0.6,0.2-1.1,0.5-1.3
					c0.3-0.3,0.7-0.4,1.1-0.4h6.7c0.8,0,1.5,0,2,0.1c0.5,0,1,0.1,1.4,0.1c1.2,0.2,2.3,0.5,3.2,1c0.9,0.5,1.7,1,2.4,1.7
					c0.6,0.7,1.1,1.5,1.4,2.4c0.3,0.9,0.5,1.9,0.5,3c0,1.1-0.1,2-0.4,2.9c-0.3,0.8-0.7,1.6-1.2,2.2c-0.5,0.6-1.2,1.2-1.9,1.7
					c-0.8,0.5-1.6,0.9-2.5,1.2c0.5,0.2,1,0.5,1.4,0.9c0.4,0.4,0.8,0.8,1.2,1.3c0.4,0.5,0.7,1.1,1,1.7c0.3,0.6,0.7,1.4,1,2.2l2.8,7
					c0.2,0.6,0.4,1,0.4,1.2C699.4,382.6,699.4,382.8,699.4,382.9z M693.1,360.6c0-1.2-0.3-2.3-0.8-3.1c-0.6-0.9-1.5-1.5-2.8-1.8
					c-0.4-0.1-0.9-0.2-1.4-0.2c-0.5,0-1.2-0.1-2-0.1h-3.5V366h4.1c1.1,0,2.1-0.1,2.9-0.4c0.8-0.3,1.5-0.6,2-1.1
					c0.5-0.5,0.9-1,1.2-1.7C693,362.1,693.1,361.4,693.1,360.6z"/>
				<path class="st1" d="M740.1,382c0.1,0.4,0.2,0.6,0.2,0.9c0,0.2-0.1,0.4-0.2,0.5c-0.1,0.1-0.3,0.2-0.6,0.2c-0.3,0-0.7,0-1.2,0
					c-0.5,0-0.9,0-1.2,0s-0.5-0.1-0.7-0.1c-0.2-0.1-0.3-0.1-0.3-0.2c-0.1-0.1-0.1-0.2-0.2-0.4l-2.7-7.7h-13.2l-2.6,7.6
					c0,0.1-0.1,0.3-0.2,0.4c-0.1,0.1-0.2,0.2-0.4,0.3c-0.2,0.1-0.4,0.1-0.7,0.2c-0.3,0-0.7,0-1.1,0c-0.5,0-0.9,0-1.2-0.1
					c-0.3,0-0.5-0.1-0.6-0.2c-0.1-0.1-0.2-0.3-0.2-0.5c0-0.2,0.1-0.5,0.2-0.9l10.6-29.4c0.1-0.2,0.2-0.3,0.3-0.4
					c0.1-0.1,0.3-0.2,0.5-0.3c0.2-0.1,0.5-0.1,0.8-0.1c0.3,0,0.7,0,1.2,0c0.5,0,1,0,1.3,0c0.3,0,0.6,0.1,0.8,0.1
					c0.2,0.1,0.4,0.2,0.5,0.3c0.1,0.1,0.2,0.3,0.3,0.5L740.1,382z M726.4,356.1L726.4,356.1l-5.5,15.8h11L726.4,356.1z"/>
				<path class="st1" d="M775.6,361.1c0,1.6-0.3,3-0.8,4.3c-0.5,1.3-1.3,2.4-2.2,3.3c-1,0.9-2.2,1.6-3.6,2.1
					c-1.4,0.5-3.1,0.7-5.1,0.7h-3.6v11.4c0,0.1,0,0.2-0.1,0.3c-0.1,0.1-0.2,0.2-0.3,0.2c-0.2,0.1-0.4,0.1-0.6,0.1
					c-0.3,0-0.6,0.1-1,0.1c-0.4,0-0.7,0-1-0.1c-0.3,0-0.5-0.1-0.6-0.1c-0.2-0.1-0.3-0.1-0.3-0.2c-0.1-0.1-0.1-0.2-0.1-0.3v-29.2
					c0-0.7,0.2-1.1,0.5-1.4c0.3-0.3,0.7-0.4,1.2-0.4h6.8c0.7,0,1.3,0,2,0.1c0.6,0.1,1.4,0.2,2.2,0.4c0.9,0.2,1.7,0.5,2.6,1.1
					c0.9,0.5,1.6,1.1,2.3,1.9c0.6,0.8,1.1,1.6,1.4,2.6C775.5,358.8,775.6,359.9,775.6,361.1z M771.2,361.5c0-1.3-0.2-2.4-0.7-3.2
					c-0.5-0.9-1.1-1.5-1.8-1.9c-0.7-0.4-1.4-0.7-2.2-0.8c-0.8-0.1-1.5-0.2-2.2-0.2h-3.9V368h3.8c1.3,0,2.3-0.2,3.2-0.5
					c0.8-0.3,1.5-0.8,2.1-1.4c0.6-0.6,1-1.3,1.3-2.1C771.1,363.3,771.2,362.4,771.2,361.5z"/>
				<path class="st1" d="M810.5,381.8c0,0.3,0,0.6,0,0.8c0,0.2-0.1,0.4-0.2,0.6c-0.1,0.1-0.2,0.3-0.3,0.3c-0.1,0.1-0.2,0.1-0.4,0.1
					h-15.2c-0.4,0-0.7-0.1-1.1-0.4c-0.3-0.3-0.5-0.7-0.5-1.3v-28.2c0-0.6,0.2-1.1,0.5-1.3c0.3-0.3,0.7-0.4,1.1-0.4h15
					c0.1,0,0.2,0,0.4,0.1c0.1,0.1,0.2,0.2,0.3,0.3c0.1,0.1,0.1,0.3,0.2,0.6c0,0.2,0.1,0.5,0.1,0.8c0,0.3,0,0.6-0.1,0.8
					c0,0.2-0.1,0.4-0.2,0.5c-0.1,0.1-0.2,0.2-0.3,0.3c-0.1,0.1-0.2,0.1-0.4,0.1h-12.4v9.9h10.6c0.1,0,0.2,0,0.4,0.1
					c0.1,0.1,0.2,0.2,0.3,0.3c0.1,0.1,0.1,0.3,0.2,0.5c0,0.2,0,0.5,0,0.8c0,0.3,0,0.5,0,0.8c0,0.2-0.1,0.4-0.2,0.5
					c-0.1,0.1-0.2,0.2-0.3,0.3c-0.1,0.1-0.2,0.1-0.4,0.1h-10.6V380h12.6c0.1,0,0.2,0,0.4,0.1c0.1,0.1,0.2,0.2,0.3,0.3
					c0.1,0.1,0.1,0.3,0.2,0.5C810.5,381.2,810.5,381.5,810.5,381.8z"/>
				<path class="st1" d="M852,371.8c0,1.9-0.3,3.6-0.8,5.2c-0.6,1.5-1.4,2.8-2.4,3.8c-1,1-2.3,1.8-3.8,2.4c-1.5,0.5-3.2,0.8-5.1,0.8
					c-1.7,0-3.3-0.3-4.8-0.8c-1.4-0.5-2.7-1.3-3.7-2.2c-1-1-1.8-2.2-2.4-3.7c-0.6-1.5-0.8-3.2-0.8-5.1v-19.7c0-0.1,0-0.2,0.1-0.3
					c0.1-0.1,0.2-0.2,0.3-0.2c0.2-0.1,0.4-0.1,0.6-0.1c0.3,0,0.6-0.1,1-0.1c0.4,0,0.7,0,1,0.1c0.3,0,0.5,0.1,0.6,0.1
					c0.2,0.1,0.3,0.1,0.3,0.2c0.1,0.1,0.1,0.2,0.1,0.3v19.1c0,1.5,0.2,2.7,0.5,3.8c0.4,1.1,0.9,2,1.6,2.7c0.7,0.7,1.5,1.3,2.4,1.6
					c1,0.4,2,0.6,3.2,0.6c1.2,0,2.3-0.2,3.3-0.5c1-0.4,1.8-0.9,2.4-1.6c0.7-0.7,1.2-1.6,1.5-2.7c0.4-1.1,0.5-2.3,0.5-3.7v-19.4
					c0-0.1,0-0.2,0.1-0.3c0.1-0.1,0.2-0.2,0.3-0.2c0.2-0.1,0.4-0.1,0.6-0.1c0.3,0,0.6-0.1,1-0.1c0.4,0,0.7,0,1,0.1
					c0.3,0,0.5,0.1,0.6,0.1c0.2,0.1,0.3,0.1,0.3,0.2c0.1,0.1,0.1,0.2,0.1,0.3V371.8z"/>
				<path class="st1" d="M891,353.7c0,0.3,0,0.6,0,0.8c0,0.2-0.1,0.4-0.2,0.6c-0.1,0.1-0.2,0.2-0.3,0.3c-0.1,0.1-0.2,0.1-0.4,0.1
					h-8.9v27.5c0,0.1,0,0.2-0.1,0.3c-0.1,0.1-0.2,0.2-0.3,0.2c-0.2,0.1-0.4,0.1-0.6,0.1c-0.3,0-0.6,0.1-1,0.1c-0.4,0-0.7,0-1-0.1
					c-0.3,0-0.5-0.1-0.7-0.1c-0.2-0.1-0.3-0.1-0.3-0.2c-0.1-0.1-0.1-0.2-0.1-0.3v-27.5h-8.9c-0.1,0-0.2,0-0.4-0.1
					c-0.1-0.1-0.2-0.2-0.3-0.3c-0.1-0.1-0.1-0.3-0.2-0.6c0-0.2-0.1-0.5-0.1-0.8c0-0.3,0-0.6,0.1-0.8c0-0.2,0.1-0.4,0.2-0.6
					c0.1-0.1,0.2-0.3,0.3-0.3c0.1-0.1,0.2-0.1,0.4-0.1h22c0.1,0,0.2,0,0.4,0.1c0.1,0.1,0.2,0.2,0.3,0.3c0.1,0.1,0.1,0.3,0.2,0.6
					C891,353.1,891,353.4,891,353.7z"/>
				<path class="st1" d="M910.7,382.9c0,0.1,0,0.2-0.1,0.3c-0.1,0.1-0.2,0.2-0.3,0.2c-0.2,0.1-0.4,0.1-0.6,0.1c-0.3,0-0.6,0.1-1,0.1
					c-0.4,0-0.7,0-1-0.1c-0.3,0-0.5-0.1-0.7-0.1c-0.2-0.1-0.3-0.1-0.3-0.2c-0.1-0.1-0.1-0.2-0.1-0.3v-30.4c0-0.1,0-0.2,0.1-0.3
					s0.2-0.2,0.4-0.2c0.2-0.1,0.4-0.1,0.7-0.1c0.3,0,0.6-0.1,1-0.1c0.4,0,0.7,0,1,0.1c0.3,0,0.5,0.1,0.6,0.1
					c0.2,0.1,0.3,0.1,0.3,0.2c0.1,0.1,0.1,0.2,0.1,0.3V382.9z"/>
				<path class="st1" d="M951.1,379c0,0.3,0,0.5,0,0.7c0,0.2,0,0.4-0.1,0.5c0,0.1-0.1,0.3-0.2,0.4c-0.1,0.1-0.2,0.3-0.3,0.4
					c-0.2,0.2-0.5,0.4-1,0.7c-0.5,0.3-1.2,0.7-1.9,1c-0.8,0.3-1.7,0.6-2.7,0.8c-1,0.2-2.1,0.3-3.3,0.3c-2.1,0-3.9-0.3-5.6-1
					c-1.7-0.7-3.1-1.7-4.2-3c-1.2-1.3-2.1-3-2.7-5c-0.6-2-0.9-4.2-0.9-6.8c0-2.6,0.3-5,1-7c0.7-2.1,1.6-3.8,2.9-5.2
					c1.2-1.4,2.7-2.5,4.4-3.3c1.7-0.8,3.6-1.1,5.7-1.1c0.9,0,1.8,0.1,2.7,0.3c0.9,0.2,1.7,0.4,2.4,0.6c0.7,0.3,1.4,0.6,2,0.9
					c0.6,0.3,1,0.6,1.2,0.8s0.4,0.4,0.4,0.5c0.1,0.1,0.1,0.2,0.2,0.4c0,0.2,0.1,0.3,0.1,0.6c0,0.2,0,0.5,0,0.8c0,0.3,0,0.6,0,0.8
					c0,0.2-0.1,0.4-0.1,0.6c-0.1,0.2-0.1,0.3-0.2,0.3s-0.2,0.1-0.3,0.1c-0.2,0-0.5-0.2-1-0.5c-0.4-0.3-0.9-0.7-1.6-1.1
					c-0.6-0.4-1.4-0.7-2.4-1.1c-0.9-0.3-2-0.5-3.3-0.5c-1.4,0-2.7,0.3-3.9,0.8c-1.2,0.6-2.1,1.4-3,2.5c-0.8,1.1-1.5,2.4-1.9,4
					c-0.5,1.6-0.7,3.4-0.7,5.4c0,2,0.2,3.8,0.7,5.3s1.1,2.8,1.9,3.9c0.8,1,1.8,1.8,3,2.3c1.2,0.5,2.5,0.8,4,0.8
					c1.3,0,2.4-0.2,3.3-0.5c0.9-0.3,1.7-0.7,2.4-1c0.7-0.4,1.2-0.7,1.6-1c0.4-0.3,0.8-0.5,1-0.5c0.1,0,0.2,0,0.3,0.1
					c0.1,0,0.1,0.1,0.2,0.3c0,0.1,0.1,0.3,0.1,0.6C951,378.4,951.1,378.7,951.1,379z"/>
				<path class="st1" d="M1024.1,382.9c0,0.1,0,0.2-0.1,0.3c-0.1,0.1-0.2,0.2-0.4,0.2c-0.2,0.1-0.4,0.1-0.6,0.1
					c-0.3,0-0.6,0.1-1,0.1c-0.4,0-0.7,0-1-0.1c-0.3,0-0.5-0.1-0.7-0.1c-0.2-0.1-0.3-0.1-0.3-0.2c-0.1-0.1-0.1-0.2-0.1-0.3v-27.6h0
					l-11.2,27.7c0,0.1-0.1,0.2-0.2,0.3c-0.1,0.1-0.2,0.2-0.4,0.2c-0.2,0.1-0.4,0.1-0.6,0.1c-0.2,0-0.5,0-0.8,0c-0.3,0-0.6,0-0.9,0
					c-0.2,0-0.4-0.1-0.6-0.1c-0.2-0.1-0.3-0.1-0.4-0.2c-0.1-0.1-0.2-0.2-0.2-0.3l-10.7-27.7h0v27.6c0,0.1,0,0.2-0.1,0.3
					c-0.1,0.1-0.2,0.2-0.4,0.2c-0.2,0.1-0.4,0.1-0.7,0.1c-0.3,0-0.6,0.1-1,0.1c-0.4,0-0.7,0-1-0.1c-0.3,0-0.5-0.1-0.6-0.1
					c-0.2-0.1-0.3-0.1-0.3-0.2c-0.1-0.1-0.1-0.2-0.1-0.3v-29.1c0-0.7,0.2-1.2,0.5-1.5c0.4-0.3,0.8-0.4,1.2-0.4h2.6
					c0.5,0,1,0,1.4,0.1c0.4,0.1,0.7,0.3,1,0.5c0.3,0.2,0.5,0.5,0.7,0.8c0.2,0.3,0.4,0.7,0.5,1.2l9.1,22.9h0.1l9.4-22.9
					c0.2-0.5,0.4-0.9,0.6-1.2c0.2-0.3,0.5-0.6,0.7-0.8c0.3-0.2,0.5-0.4,0.9-0.4c0.3-0.1,0.7-0.1,1.1-0.1h2.7c0.2,0,0.5,0,0.7,0.1
					c0.2,0.1,0.4,0.2,0.6,0.3c0.2,0.2,0.3,0.4,0.4,0.6c0.1,0.2,0.1,0.5,0.1,0.9V382.9z"/>
				<path class="st1" d="M1067,382c0.1,0.4,0.2,0.6,0.2,0.9c0,0.2-0.1,0.4-0.2,0.5c-0.1,0.1-0.3,0.2-0.6,0.2c-0.3,0-0.7,0-1.2,0
					c-0.5,0-0.9,0-1.2,0c-0.3,0-0.5-0.1-0.7-0.1c-0.2-0.1-0.3-0.1-0.3-0.2s-0.1-0.2-0.2-0.4l-2.7-7.7h-13.2l-2.6,7.6
					c0,0.1-0.1,0.3-0.2,0.4c-0.1,0.1-0.2,0.2-0.4,0.3c-0.2,0.1-0.4,0.1-0.7,0.2c-0.3,0-0.7,0-1.1,0c-0.5,0-0.9,0-1.2-0.1
					c-0.3,0-0.5-0.1-0.6-0.2c-0.1-0.1-0.2-0.3-0.2-0.5c0-0.2,0.1-0.5,0.2-0.9l10.6-29.4c0.1-0.2,0.2-0.3,0.3-0.4
					c0.1-0.1,0.3-0.2,0.5-0.3c0.2-0.1,0.5-0.1,0.8-0.1c0.3,0,0.7,0,1.2,0c0.5,0,1,0,1.3,0c0.3,0,0.6,0.1,0.8,0.1
					c0.2,0.1,0.4,0.2,0.5,0.3c0.1,0.1,0.2,0.3,0.3,0.5L1067,382z M1053.4,356.1L1053.4,356.1l-5.5,15.8h11L1053.4,356.1z"/>
				<path class="st1" d="M1100.1,374.6c0,1.5-0.3,2.8-0.8,4c-0.5,1.2-1.3,2.1-2.3,2.9c-1,0.8-2.1,1.4-3.4,1.8
					c-1.3,0.4-2.7,0.6-4.2,0.6c-1.1,0-2-0.1-2.9-0.3c-0.9-0.2-1.7-0.4-2.4-0.7c-0.7-0.3-1.3-0.5-1.8-0.8c-0.5-0.3-0.8-0.5-1-0.7
					c-0.2-0.2-0.3-0.4-0.4-0.7c-0.1-0.3-0.1-0.7-0.1-1.2c0-0.4,0-0.7,0-0.9c0-0.2,0.1-0.4,0.1-0.6c0.1-0.1,0.1-0.2,0.2-0.3
					c0.1-0.1,0.2-0.1,0.3-0.1c0.2,0,0.6,0.1,1,0.4c0.4,0.3,1,0.6,1.6,0.9c0.7,0.3,1.4,0.6,2.4,0.9c0.9,0.3,2,0.4,3.2,0.4
					c0.9,0,1.8-0.1,2.5-0.4s1.4-0.6,2-1c0.5-0.4,1-1,1.3-1.7c0.3-0.7,0.4-1.4,0.4-2.2c0-0.9-0.2-1.7-0.6-2.3
					c-0.4-0.6-0.9-1.2-1.6-1.7c-0.7-0.5-1.4-0.9-2.3-1.3c-0.9-0.4-1.7-0.8-2.6-1.2c-0.9-0.4-1.8-0.9-2.6-1.4
					c-0.8-0.5-1.6-1.1-2.3-1.8c-0.7-0.7-1.2-1.5-1.6-2.4c-0.4-0.9-0.6-2-0.6-3.3c0-1.3,0.2-2.5,0.7-3.5c0.5-1,1.2-1.9,2-2.6
					c0.9-0.7,1.9-1.2,3.1-1.6c1.2-0.4,2.5-0.6,3.8-0.6c0.7,0,1.4,0.1,2.1,0.2c0.7,0.1,1.4,0.3,2,0.5c0.6,0.2,1.2,0.4,1.7,0.7
					c0.5,0.3,0.8,0.5,1,0.6c0.2,0.2,0.3,0.3,0.3,0.4c0,0.1,0.1,0.2,0.1,0.3c0,0.1,0.1,0.3,0.1,0.5c0,0.2,0,0.4,0,0.8
					c0,0.3,0,0.6,0,0.8c0,0.2-0.1,0.4-0.1,0.6c0,0.2-0.1,0.3-0.2,0.3c-0.1,0.1-0.2,0.1-0.3,0.1c-0.2,0-0.5-0.1-0.8-0.3
					c-0.4-0.2-0.9-0.5-1.4-0.8c-0.6-0.3-1.2-0.5-2-0.8c-0.8-0.2-1.6-0.4-2.6-0.4c-0.9,0-1.6,0.1-2.3,0.4c-0.7,0.2-1.2,0.6-1.6,0.9
					c-0.4,0.4-0.7,0.9-1,1.4c-0.2,0.5-0.3,1.1-0.3,1.7c0,0.9,0.2,1.6,0.6,2.3c0.4,0.6,1,1.2,1.6,1.7c0.7,0.5,1.4,0.9,2.3,1.3
					c0.9,0.4,1.7,0.8,2.6,1.2c0.9,0.4,1.8,0.9,2.6,1.4c0.9,0.5,1.6,1.1,2.3,1.8c0.7,0.7,1.2,1.5,1.6,2.4
					C1099.9,372.3,1100.1,373.4,1100.1,374.6z"/>
				<path class="st1" d="M1134,374.6c0,1.5-0.3,2.8-0.8,4c-0.5,1.2-1.3,2.1-2.3,2.9c-1,0.8-2.1,1.4-3.4,1.8
					c-1.3,0.4-2.7,0.6-4.2,0.6c-1.1,0-2-0.1-2.9-0.3c-0.9-0.2-1.7-0.4-2.4-0.7c-0.7-0.3-1.3-0.5-1.8-0.8c-0.5-0.3-0.8-0.5-1-0.7
					c-0.2-0.2-0.3-0.4-0.4-0.7c-0.1-0.3-0.1-0.7-0.1-1.2c0-0.4,0-0.7,0-0.9c0-0.2,0.1-0.4,0.1-0.6c0.1-0.1,0.1-0.2,0.2-0.3
					c0.1-0.1,0.2-0.1,0.3-0.1c0.2,0,0.6,0.1,1,0.4c0.4,0.3,1,0.6,1.6,0.9c0.7,0.3,1.4,0.6,2.4,0.9c0.9,0.3,2,0.4,3.2,0.4
					c0.9,0,1.8-0.1,2.5-0.4c0.8-0.2,1.4-0.6,2-1c0.5-0.4,1-1,1.3-1.7c0.3-0.7,0.4-1.4,0.4-2.2c0-0.9-0.2-1.7-0.6-2.3
					c-0.4-0.6-0.9-1.2-1.6-1.7c-0.7-0.5-1.4-0.9-2.3-1.3c-0.9-0.4-1.7-0.8-2.6-1.2c-0.9-0.4-1.8-0.9-2.6-1.4
					c-0.8-0.5-1.6-1.1-2.3-1.8c-0.7-0.7-1.2-1.5-1.6-2.4c-0.4-0.9-0.6-2-0.6-3.3c0-1.3,0.2-2.5,0.7-3.5c0.5-1,1.2-1.9,2-2.6
					c0.9-0.7,1.9-1.2,3.1-1.6c1.2-0.4,2.5-0.6,3.8-0.6c0.7,0,1.4,0.1,2.1,0.2c0.7,0.1,1.4,0.3,2,0.5c0.6,0.2,1.2,0.4,1.7,0.7
					c0.5,0.3,0.8,0.5,1,0.6c0.2,0.2,0.3,0.3,0.3,0.4c0,0.1,0.1,0.2,0.1,0.3c0,0.1,0.1,0.3,0.1,0.5c0,0.2,0,0.4,0,0.8
					c0,0.3,0,0.6,0,0.8c0,0.2-0.1,0.4-0.1,0.6c0,0.2-0.1,0.3-0.2,0.3c-0.1,0.1-0.2,0.1-0.3,0.1c-0.2,0-0.5-0.1-0.8-0.3
					c-0.4-0.2-0.9-0.5-1.4-0.8c-0.6-0.3-1.2-0.5-2-0.8c-0.8-0.2-1.6-0.4-2.6-0.4c-0.9,0-1.6,0.1-2.3,0.4c-0.7,0.2-1.2,0.6-1.6,0.9
					c-0.4,0.4-0.7,0.9-1,1.4c-0.2,0.5-0.3,1.1-0.3,1.7c0,0.9,0.2,1.6,0.6,2.3c0.4,0.6,1,1.2,1.6,1.7c0.7,0.5,1.4,0.9,2.3,1.3
					c0.9,0.4,1.7,0.8,2.6,1.2c0.9,0.4,1.8,0.9,2.6,1.4c0.9,0.5,1.6,1.1,2.3,1.8c0.7,0.7,1.2,1.5,1.6,2.4
					C1133.8,372.3,1134,373.4,1134,374.6z"/>
				<path class="st1" d="M1174.2,382c0.1,0.4,0.2,0.6,0.2,0.9c0,0.2-0.1,0.4-0.2,0.5c-0.1,0.1-0.3,0.2-0.6,0.2c-0.3,0-0.7,0-1.2,0
					c-0.5,0-0.9,0-1.2,0s-0.5-0.1-0.7-0.1c-0.2-0.1-0.3-0.1-0.3-0.2c-0.1-0.1-0.1-0.2-0.2-0.4l-2.7-7.7H1154l-2.6,7.6
					c0,0.1-0.1,0.3-0.2,0.4c-0.1,0.1-0.2,0.2-0.4,0.3c-0.2,0.1-0.4,0.1-0.7,0.2c-0.3,0-0.7,0-1.1,0c-0.5,0-0.9,0-1.2-0.1
					c-0.3,0-0.5-0.1-0.6-0.2c-0.1-0.1-0.2-0.3-0.2-0.5c0-0.2,0.1-0.5,0.2-0.9l10.6-29.4c0.1-0.2,0.2-0.3,0.3-0.4
					c0.1-0.1,0.3-0.2,0.5-0.3c0.2-0.1,0.5-0.1,0.8-0.1c0.3,0,0.7,0,1.2,0c0.5,0,1,0,1.3,0c0.3,0,0.6,0.1,0.8,0.1
					c0.2,0.1,0.4,0.2,0.5,0.3c0.1,0.1,0.2,0.3,0.3,0.5L1174.2,382z M1160.6,356.1L1160.6,356.1l-5.5,15.8h11L1160.6,356.1z"/>
				<path class="st1" d="M1213.7,356.2c0,0.3,0,0.6,0,0.8c0,0.2-0.1,0.4-0.1,0.6c-0.1,0.2-0.1,0.3-0.2,0.3c-0.1,0.1-0.2,0.1-0.3,0.1
					c-0.2,0-0.5-0.2-1-0.5c-0.5-0.3-1.1-0.7-1.8-1c-0.8-0.4-1.7-0.7-2.8-1c-1.1-0.3-2.3-0.5-3.8-0.5c-1.7,0-3.3,0.3-4.7,1
					c-1.4,0.6-2.6,1.5-3.5,2.6c-1,1.1-1.7,2.5-2.2,4c-0.5,1.6-0.8,3.2-0.8,5c0,2,0.3,3.8,0.8,5.4s1.3,2.9,2.3,4
					c1,1.1,2.2,1.9,3.6,2.4c1.4,0.6,2.9,0.8,4.5,0.8c1,0,2-0.1,3-0.4c1-0.2,1.9-0.6,2.8-1.1v-9.2h-7.3c-0.3,0-0.5-0.1-0.6-0.4
					c-0.1-0.3-0.2-0.7-0.2-1.3c0-0.3,0-0.6,0-0.8c0-0.2,0.1-0.4,0.2-0.5c0.1-0.1,0.2-0.2,0.3-0.3c0.1-0.1,0.2-0.1,0.4-0.1h10.1
					c0.2,0,0.4,0,0.5,0.1c0.2,0.1,0.3,0.2,0.5,0.3c0.1,0.1,0.3,0.3,0.3,0.5c0.1,0.2,0.1,0.5,0.1,0.8V380c0,0.4-0.1,0.8-0.2,1.1
					c-0.1,0.3-0.5,0.6-0.9,0.8c-0.5,0.2-1.1,0.5-1.8,0.8c-0.8,0.3-1.5,0.5-2.3,0.7c-0.8,0.2-1.6,0.3-2.4,0.4
					c-0.8,0.1-1.6,0.1-2.4,0.1c-2.4,0-4.6-0.4-6.6-1.1c-1.9-0.8-3.6-1.8-4.9-3.2c-1.3-1.4-2.3-3.1-3-5c-0.7-2-1.1-4.1-1.1-6.6
					c0-2.5,0.4-4.8,1.1-6.8c0.8-2,1.8-3.8,3.2-5.2c1.4-1.4,3-2.5,5-3.3c1.9-0.8,4.1-1.2,6.4-1.2c1.2,0,2.3,0.1,3.4,0.3
					c1.1,0.2,2,0.5,2.8,0.7c0.8,0.3,1.5,0.6,2.1,0.9c0.6,0.3,1,0.6,1.2,0.8c0.2,0.2,0.4,0.5,0.4,0.7
					C1213.7,355.2,1213.7,355.6,1213.7,356.2z"/>
				<path class="st1" d="M1250,381.8c0,0.3,0,0.6,0,0.8c0,0.2-0.1,0.4-0.2,0.6c-0.1,0.1-0.2,0.3-0.3,0.3c-0.1,0.1-0.2,0.1-0.4,0.1
					h-15.2c-0.4,0-0.7-0.1-1.1-0.4c-0.3-0.3-0.5-0.7-0.5-1.3v-28.2c0-0.6,0.2-1.1,0.5-1.3c0.3-0.3,0.7-0.4,1.1-0.4h15
					c0.1,0,0.2,0,0.4,0.1c0.1,0.1,0.2,0.2,0.3,0.3c0.1,0.1,0.1,0.3,0.2,0.6c0,0.2,0.1,0.5,0.1,0.8c0,0.3,0,0.6-0.1,0.8
					c0,0.2-0.1,0.4-0.2,0.5c-0.1,0.1-0.2,0.2-0.3,0.3c-0.1,0.1-0.2,0.1-0.4,0.1h-12.4v9.9h10.6c0.1,0,0.2,0,0.4,0.1
					c0.1,0.1,0.2,0.2,0.3,0.3c0.1,0.1,0.1,0.3,0.2,0.5c0,0.2,0,0.5,0,0.8c0,0.3,0,0.5,0,0.8c0,0.2-0.1,0.4-0.2,0.5
					c-0.1,0.1-0.2,0.2-0.3,0.3c-0.1,0.1-0.2,0.1-0.4,0.1h-10.6V380h12.6c0.1,0,0.2,0,0.4,0.1c0.1,0.1,0.2,0.2,0.3,0.3
					c0.1,0.1,0.1,0.3,0.2,0.5C1250,381.2,1250,381.5,1250,381.8z"/>
			</g>
		</g>
		<g>
			<g>
				<path class="st1" d="M1234.6,195c-8.5,0-15.4-6.9-15.4-15.4s6.9-15.4,15.4-15.4c8.5,0,15.4,6.9,15.4,15.4S1243.1,195,1234.6,195
					z M1234.6,166.5c-7.2,0-13.1,5.9-13.1,13.1c0,7.2,5.9,13.1,13.1,13.1s13.1-5.9,13.1-13.1
					C1247.6,172.4,1241.8,166.5,1234.6,166.5z"/>
			</g>
			<g>
				<g>
					<path class="st1" d="M1239.8,187.1c0,0.1,0,0.1,0,0.2c0,0-0.1,0.1-0.2,0.1c-0.1,0-0.2,0.1-0.3,0.1c-0.1,0-0.3,0-0.6,0
						c-0.2,0-0.4,0-0.5,0c-0.1,0-0.2,0-0.3-0.1c-0.1,0-0.1-0.1-0.2-0.2c0-0.1-0.1-0.1-0.1-0.2l-1.5-3.7c-0.2-0.4-0.3-0.8-0.5-1.2
						c-0.2-0.4-0.4-0.7-0.7-0.9c-0.3-0.3-0.6-0.5-0.9-0.6c-0.3-0.1-0.8-0.2-1.2-0.2h-1.4v6.7c0,0.1,0,0.1-0.1,0.2
						c0,0-0.1,0.1-0.2,0.1c-0.1,0-0.2,0.1-0.3,0.1c-0.1,0-0.3,0-0.5,0c-0.2,0-0.4,0-0.5,0c-0.1,0-0.2,0-0.3-0.1
						c-0.1,0-0.1-0.1-0.2-0.1c0,0,0-0.1,0-0.2v-14.7c0-0.3,0.1-0.5,0.3-0.7c0.2-0.1,0.3-0.2,0.5-0.2h3.4c0.4,0,0.7,0,1,0
						c0.3,0,0.5,0,0.7,0.1c0.6,0.1,1.2,0.3,1.6,0.5c0.5,0.2,0.9,0.5,1.2,0.9c0.3,0.4,0.6,0.8,0.7,1.2c0.2,0.5,0.2,1,0.2,1.5
						c0,0.5-0.1,1-0.2,1.4c-0.1,0.4-0.3,0.8-0.6,1.1c-0.3,0.3-0.6,0.6-1,0.8c-0.4,0.2-0.8,0.4-1.3,0.6c0.3,0.1,0.5,0.3,0.7,0.4
						c0.2,0.2,0.4,0.4,0.6,0.6c0.2,0.2,0.4,0.5,0.5,0.8c0.2,0.3,0.3,0.7,0.5,1.1l1.4,3.5c0.1,0.3,0.2,0.5,0.2,0.6
						C1239.8,187,1239.8,187.1,1239.8,187.1z M1236.7,176c0-0.6-0.1-1.1-0.4-1.6c-0.3-0.4-0.7-0.7-1.4-0.9c-0.2-0.1-0.4-0.1-0.7-0.1
						c-0.3,0-0.6,0-1,0h-1.8v5.3h2.1c0.6,0,1-0.1,1.4-0.2c0.4-0.1,0.7-0.3,1-0.6c0.3-0.2,0.5-0.5,0.6-0.9
						C1236.6,176.8,1236.7,176.4,1236.7,176z"/>
				</g>
			</g>
		</g>
		<path class="st0" d="M430.7,36.2c0,0,164.2-14.9,189.6,138.2C620.3,174.3,635.2,15.4,430.7,36.2z"/>
		<path class="st0" d="M435.7,42.6c0,0,133.9,2.4,169.9,108.2c9.7,28.6,10.2,59.5,2,88.6c-11.8,41.9-44.3,102.4-133.5,100.8
			c0,0-74,1.4-151.7-49.6c0,0,105.9,61.1,189.4,32.9c0,0,58.7-17.7,79.1-84.2c20.4-66.5-13.6-119.1-22.1-129.3
			C560.3,100,524.3,49.7,435.7,42.6z"/>
	</g>
</g>
</svg>
